<svg id="visual" viewBox="0 0 960 540" width="960" height="540" xmlns="http://www.w3.org/2000/svg" xmlns:xlink="http://www.w3.org/1999/xlink" version="1.1">
  <!-- Gradient Background -->
  <defs>
    <linearGradient id="gradient" x1="0%" y1="0%" x2="100%" y2="100%">
      <stop offset="0%" style="stop-color:#1a2a6c;stop-opacity:1" />
      <stop offset="50%" style="stop-color:#b21f1f;stop-opacity:1" />
      <stop offset="100%" style="stop-color:#fdbb2d;stop-opacity:1" />
    </linearGradient>
  </defs>
  <rect width="960" height="540" fill="url(#gradient)" />

  <!-- Wave Shapes -->
  <path d="M0 120L80 150L160 130L240 140L320 170L400 160L480 175L560 180L640 140L720 120L800 140L880 160L960 180L960 0L880 0L800 0L720 0L640 0L560 0L480 0L400 0L320 0L240 0L160 0L80 0L0 0Z" fill="#1a2a6c" opacity="0.8"></path>
  <path d="M0 200L80 220L160 240L240 250L320 230L400 260L480 250L560 240L640 200L720 160L800 200L880 200L960 220L960 180L880 160L800 140L720 120L640 140L560 180L480 175L400 160L320 170L240 140L160 130L80 150L0 120Z" fill="#b21f1f" opacity="0.7"></path>
  <path d="M0 280L80 300L160 340L240 360L320 350L400 380L480 340L560 330L640 310L720 300L800 320L880 340L960 310L960 220L880 200L800 200L720 160L640 200L560 240L480 250L400 260L320 230L240 250L160 240L80 220L0 200Z" fill="#fdbb2d" opacity="0.6"></path>
  <path d="M0 400L80 440L160 390L240 410L320 470L400 490L480 410L560 440L640 400L720 430L800 420L880 410L960 450L960 310L880 340L800 320L720 300L640 310L560 330L480 340L400 380L320 350L240 360L160 340L80 300L0 280Z" fill="#1a2a6c" opacity="0.5"></path>
  <path d="M0 540L80 540L160 540L240 540L320 540L400 540L480 540L560 540L640 540L720 540L800 540L880 540L960 540L960 450L880 410L800 420L720 430L640 400L560 440L480 410L400 490L320 470L240 410L160 390L80 440L0 400Z" fill="#b21f1f" opacity="0.4"></path>

  <!-- Text for Portfolio Title -->
  <text x="50%" y="50%" text-anchor="middle" fill="white" font-size="48" font-family="Arial, sans-serif" font-weight="bold">
    My Portfolio
  </text>
</svg>