<svg id="visual" viewBox="0 0 960 540" width="960" height="540" xmlns="http://www.w3.org/2000/svg" xmlns:xlink="http://www.w3.org/1999/xlink" version="1.1">
  <!-- Dark Gradient Background -->
  <defs>
    <linearGradient id="gradient" x1="0%" y1="0%" x2="100%" y2="100%">
      <stop offset="0%" style="stop-color:#0a0a0a;stop-opacity:1" />
      <stop offset="100%" style="stop-color:#1a1a1a;stop-opacity:1" />
    </linearGradient>
  </defs>
  <rect width="960" height="540" fill="url(#gradient)" />

  <!-- Dynamic Wave Shapes -->
  <path d="M0 120C150 80 300 160 450 120C600 80 750 160 960 120L960 0L0 0Z" fill="#1a1a1a" opacity="0.9"></path>
  <path d="M0 240C150 200 300 280 450 240C600 200 750 280 960 240L960 120C750 120 600 40 450 80C300 120 150 40 0 80Z" fill="#2a2a2a" opacity="0.8"></path>
  <path d="M0 360C150 320 300 400 450 360C600 320 750 400 960 360L960 240C750 240 600 160 450 200C300 240 150 160 0 200Z" fill="#3a3a3a" opacity="0.7"></path>
  <path d="M0 480C150 440 300 520 450 480C600 440 750 520 960 480L960 360C750 360 600 280 450 320C300 360 150 280 0 320Z" fill="#4a4a4a" opacity="0.6"></path>
  <path d="M0 540L960 540L960 480C750 480 600 400 450 440C300 480 150 400 0 440Z" fill="#5a5a5a" opacity="0.5"></path>
</svg>