<svg id="visual" viewBox="0 0 960 540" width="960" height="540" xmlns="http://www.w3.org/2000/svg" xmlns:xlink="http://www.w3.org/1999/xlink" version="1.1">
  <!-- Kota Abstrak -->
  <path d="M0 100L100 150L200 100L300 150L400 100L500 150L600 100L700 150L800 100L900 150L960 100L960 0L900 0L800 0L700 0L600 0L500 0L400 0L300 0L200 0L100 0L0 0Z" fill="#003223"></path>
  <path d="M0 180L100 230L200 180L300 230L400 180L500 230L600 180L700 230L800 180L900 230L960 180L960 130L900 80L800 130L700 80L600 130L500 80L400 130L300 80L200 130L100 80L0 130Z" fill="#013b2d"></path>
  <path d="M0 260L100 310L200 260L300 310L400 260L500 310L600 260L700 310L800 260L900 310L960 260L960 210L900 160L800 210L700 160L600 210L500 160L400 210L300 160L200 210L100 160L0 210Z" fill="#014537"></path>
  <path d="M0 340L100 390L200 340L300 390L400 340L500 390L600 340L700 390L800 340L900 390L960 340L960 290L900 240L800 290L700 240L600 290L500 240L400 290L300 240L200 290L100 240L0 290Z" fill="#024f42"></path>
  <path d="M0 420L100 470L200 420L300 470L400 420L500 470L600 420L700 470L800 420L900 470L960 420L960 370L900 320L800 370L700 320L600 370L500 320L400 370L300 320L200 370L100 320L0 370Z" fill="#02594e"></path>

  <!-- Gedung Abstrak -->
  <rect x="100" y="100" width="200" height="200" fill="#003223" opacity="0.5"></rect>
  <rect x="350" y="150" width="200" height="200" fill="#013b2d" opacity="0.5"></rect>
  <rect x="600" y="200" width="200" height="200" fill="#014537" opacity="0.5"></rect>
  <rect x="850" y="250" width="200" height="200" fill="#024f42" opacity="0.5"></rect>
  <rect x="100" y="350" width="200" height="200" fill="#02594e" opacity="0.5"></rect>
</svg>